<?xml version="1.0" encoding="UTF-8"?>
<svg xmlns="http://www.w3.org/2000/svg" id="Icons" viewBox="0 0 74 74" width="512" height="512"><path d="M26.945,46.53H21.6A1.632,1.632,0,0,1,20,45.224l-.532-2.656A18.6,18.6,0,0,1,14.724,40.6l-2.251,1.5a1.629,1.629,0,0,1-2.052-.2L6.64,38.119a1.629,1.629,0,0,1-.2-2.052l1.5-2.25a18.818,18.818,0,0,1-1.971-4.75l-2.65-.531a1.63,1.63,0,0,1-1.306-1.594V21.6A1.631,1.631,0,0,1,3.316,20l2.651-.531a18.684,18.684,0,0,1,1.972-4.753l-1.5-2.246a1.63,1.63,0,0,1,.2-2.053l3.782-3.782a1.629,1.629,0,0,1,2.049-.2l2.257,1.5a18.775,18.775,0,0,1,4.745-1.969L20,3.314A1.631,1.631,0,0,1,21.6,2.008h5.347a1.63,1.63,0,0,1,1.594,1.305l.531,2.651a18.745,18.745,0,0,1,4.745,1.969l2.257-1.5a1.63,1.63,0,0,1,2.049.2L41.9,10.418a1.629,1.629,0,0,1,.2,2.052l-1.5,2.247a18.651,18.651,0,0,1,1.973,4.753l2.65.531A1.632,1.632,0,0,1,46.533,21.6v5.347a1.631,1.631,0,0,1-1.306,1.594l-2.651.531a18.791,18.791,0,0,1-1.968,4.745l1.5,2.257a1.628,1.628,0,0,1-.2,2.05L38.121,41.9a1.631,1.631,0,0,1-2.048.2L33.82,40.6a18.657,18.657,0,0,1-4.749,1.967l-.532,2.655A1.631,1.631,0,0,1,26.945,46.53Zm-5.04-2h4.734l.592-2.957a1,1,0,0,1,.767-.8,16.684,16.684,0,0,0,5.311-2.2,1,1,0,0,1,1.088.012l2.528,1.68,3.348-3.344-1.64-2.466a1.063,1.063,0,0,1-.087-.131,1,1,0,0,1,.029-1.018,16.8,16.8,0,0,0,2.2-5.314,1,1,0,0,1,.78-.76l2.973-.6V21.9l-2.973-.6a1,1,0,0,1-.78-.761,16.686,16.686,0,0,0-2.2-5.311,1,1,0,0,1-.157-.537,1.019,1.019,0,0,1,.169-.562l1.684-2.52L36.924,8.268,34.457,9.907a1.063,1.063,0,0,1-.131.087,1,1,0,0,1-1.018-.029A16.807,16.807,0,0,0,28,7.76a1,1,0,0,1-.761-.779l-.6-2.973H21.905l-.6,2.973a1,1,0,0,1-.761.779,16.817,16.817,0,0,0-5.313,2.205A1,1,0,0,1,14.218,10a1.09,1.09,0,0,1-.157-.108L11.62,8.268,8.271,11.615l1.685,2.52a1.006,1.006,0,0,1,.168.555,1.016,1.016,0,0,1-.157.544,16.686,16.686,0,0,0-2.2,5.311,1,1,0,0,1-.779.761l-2.973.6v4.734l2.973.6a1,1,0,0,1,.779.76,16.828,16.828,0,0,0,2.205,5.314A1,1,0,0,1,9.956,34.4L8.271,36.922l3.348,3.348,2.526-1.686a1,1,0,0,1,1.09-.012,16.7,16.7,0,0,0,5.311,2.2,1,1,0,0,1,.772.83Z"/><path d="M24.509,37.23a1,1,0,0,1-.018-2A10.966,10.966,0,1,0,13.3,24.27a1.029,1.029,0,0,1-.845,1.162.981.981,0,0,1-1.135-.817,2.357,2.357,0,0,1-.02-.345A12.97,12.97,0,1,1,24.528,37.23Z"/><path d="M17.029,34.8a1,1,0,0,1-.6-.2,12.652,12.652,0,0,1-2.28-2.226,1,1,0,0,1,1.568-1.242A10.642,10.642,0,0,0,17.633,33a1,1,0,0,1-.6,1.8Z"/><path d="M57.457,72.008h-3.9a1.462,1.462,0,0,1-1.428-1.169l-.355-1.773a13.829,13.829,0,0,1-3.219-1.333l-1.5,1a1.458,1.458,0,0,1-1.838-.183L42.458,65.8a1.458,1.458,0,0,1-.182-1.837l1-1.5a13.965,13.965,0,0,1-1.336-3.22l-1.768-.355A1.46,1.46,0,0,1,39,57.454v-3.9a1.462,1.462,0,0,1,1.168-1.428l1.769-.354a13.884,13.884,0,0,1,1.338-3.223l-1-1.5a1.46,1.46,0,0,1,.181-1.839l2.758-2.757a1.459,1.459,0,0,1,1.835-.184l1.507,1a13.929,13.929,0,0,1,3.217-1.334l.354-1.768A1.461,1.461,0,0,1,53.557,39h3.9a1.46,1.46,0,0,1,1.427,1.168l.355,1.77a13.948,13.948,0,0,1,3.217,1.334l1.506-1a1.463,1.463,0,0,1,1.836.184l2.758,2.757a1.46,1.46,0,0,1,.18,1.84l-1,1.5a13.881,13.881,0,0,1,1.337,3.223l1.768.354a1.461,1.461,0,0,1,1.17,1.428v3.9a1.46,1.46,0,0,1-1.169,1.427l-1.769.355a13.984,13.984,0,0,1-1.335,3.217l1,1.506a1.459,1.459,0,0,1-.183,1.836L65.8,68.549a1.458,1.458,0,0,1-1.835.182l-1.5-1a13.856,13.856,0,0,1-3.22,1.335l-.355,1.771A1.46,1.46,0,0,1,57.457,72.008Zm-3.454-2h3.008l.388-1.935a1,1,0,0,1,.767-.8,11.878,11.878,0,0,0,3.786-1.568,1,1,0,0,1,1.089.012l1.658,1.1,2.128-2.125-1.068-1.607a.916.916,0,0,1-.08-.122,1,1,0,0,1,.029-1.018,12,12,0,0,0,1.574-3.789,1,1,0,0,1,.779-.76l1.95-.391V54l-1.95-.391a1,1,0,0,1-.78-.76,11.891,11.891,0,0,0-1.572-3.788,1,1,0,0,1-.156-.537,1.017,1.017,0,0,1,.168-.561l1.1-1.652L64.7,44.184l-1.607,1.068a1.026,1.026,0,0,1-.122.08,1,1,0,0,1-1.018-.03,11.963,11.963,0,0,0-3.789-1.573,1,1,0,0,1-.76-.779L57.011,41H54l-.391,1.95a1,1,0,0,1-.76.779,11.978,11.978,0,0,0-3.79,1.573,1,1,0,0,1-1.017.032,1.018,1.018,0,0,1-.145-.1l-1.585-1.053-2.127,2.127,1.1,1.652a1,1,0,0,1,.169.556,1.02,1.02,0,0,1-.156.542,11.916,11.916,0,0,0-1.573,3.788,1,1,0,0,1-.779.76L41,54v3.008l1.95.391a1,1,0,0,1,.779.76,12.017,12.017,0,0,0,1.573,3.789,1,1,0,0,1-.012,1.091l-1.1,1.657,2.126,2.127,1.658-1.1a1,1,0,0,1,1.09-.012,11.876,11.876,0,0,0,3.787,1.567,1,1,0,0,1,.771.824Zm-7.374-2.87h0Zm-2.69-21.2h0Z"/><path d="M55.507,64.637A9.133,9.133,0,1,1,64.64,55.5,9.143,9.143,0,0,1,55.507,64.637Zm0-16.266A7.133,7.133,0,1,0,62.64,55.5,7.141,7.141,0,0,0,55.507,48.371Z"/></svg>
