<?xml version="1.0" encoding="UTF-8"?>
<!DOCTYPE svg PUBLIC "-//W3C//DTD SVG 1.1//EN" "http://www.w3.org/Graphics/SVG/1.1/DTD/svg11.dtd">
<!-- Creator: CorelDRAW X5 -->
<svg xmlns="http://www.w3.org/2000/svg" xml:space="preserve" width="100.027mm" height="130mm" style="shape-rendering:geometricPrecision; text-rendering:geometricPrecision; image-rendering:optimizeQuality; fill-rule:evenodd; clip-rule:evenodd"
viewBox="0 0 10003 13000"
 xmlns:xlink="http://www.w3.org/1999/xlink">
 <defs>
  <style type="text/css">
   <![CDATA[
    .fil0 {fill:none}
    .fil2 {fill:#FEFEFE}
    .fil3 {fill:#E0A736}
    .fil1 {fill:#Eaa736}
   ]]>
  </style>
 </defs>
 <g id="Layer_x0020_1">
  <metadata id="CorelCorpID_0Corel-Layer"/>
  <path class="fil0" d="M6633 7461c8,33 15,66 0,0"/>
  <polygon class="fil1" points="4237,2960 4635,2960 4917,2678 5199,2960 5611,2960 5611,3372 5903,3664 5611,3955 5611,4354 5213,4354 4931,4636 4649,4354 4237,4354 4237,3941 3945,3650 4237,3358 "/>
  <path class="fil2" d="M4439 4131l-65 73 0 -1094 65 53 0 968zm1035 -466l0 0 0 478 -49 61 -174 0 -49 -57 0 -255 69 48 0 167 130 0 0 -393 -130 0 -69 -67 0 -476 49 -61 162 0 61 49 0 276 -77 -73 0 -146 -126 0 0 385 130 0 73 65zm-350 0l0 0 0 478 -49 61 -174 0 -49 -57 0 -976 49 -61 162 0 61 49 0 276 -77 -73 0 -146 -126 0 0 385 130 0 73 65zm-73 442l0 0 0 -393 -130 0 0 393 130 0zm-539 -458l0 0 0 -478 49 -61 174 0 49 57 0 976 -49 61 -162 0 -61 -49 0 -275 77 73 0 146 126 0 0 -385 -130 0 -73 -65zm73 -442l0 0 0 393 130 0 0 -393 -130 0z"/>
  <path class="fil3" d="M1447 9935l74 0 0 197c0,31 1,51 3,61 3,15 10,27 22,36 12,9 28,14 48,14 21,0 36,-4 47,-13 10,-9 17,-19 19,-31 2,-12 3,-33 3,-62l0 -201 74 0 0 191c0,44 -2,75 -6,93 -4,18 -11,33 -22,46 -11,12 -25,22 -43,30 -18,7 -41,11 -70,11 -35,0 -61,-4 -79,-12 -18,-8 -32,-18 -42,-31 -10,-13 -17,-26 -20,-40 -5,-21 -7,-52 -7,-92l0 -194zm366 363l0 0 0 -363 71 0 150 243 0 -243 68 0 0 363 -73 0 -147 -239 0 239 -68 0zm364 0l0 0 0 -363 74 0 0 363 -74 0zm236 0l0 0 -130 -363 79 0 92 269 89 -269 78 0 -129 363 -79 0zm246 0l0 0 0 -363 269 0 0 61 -195 0 0 81 182 0 0 61 -182 0 0 98 202 0 0 61 -276 0zm338 0l0 0 0 -363 155 0c39,0 67,3 85,10 18,7 32,18 42,35 11,17 16,36 16,57 0,27 -8,50 -24,68 -16,18 -40,29 -72,34 16,9 29,19 39,30 10,11 24,31 42,59l44 71 -88 0 -53 -79c-19,-28 -32,-46 -39,-53 -7,-7 -14,-12 -22,-15 -8,-3 -20,-4 -37,-4l-15 0 0 152 -74 0zm74 -210l0 0 54 0c35,0 57,-2 66,-4 9,-3 16,-8 21,-15 5,-7 7,-16 7,-27 0,-12 -3,-22 -10,-30 -7,-8 -16,-12 -28,-14 -6,-1 -24,-1 -54,-1l-57 0 0 92zm274 92l0 0 72 -7c4,24 13,41 26,53 13,11 31,17 53,17 24,0 41,-5 53,-15 12,-10 18,-22 18,-35 0,-9 -3,-16 -8,-22 -5,-6 -14,-11 -26,-16 -9,-3 -28,-8 -58,-16 -39,-10 -67,-22 -82,-36 -22,-20 -33,-44 -33,-73 0,-19 5,-36 16,-52 10,-16 26,-28 45,-37 20,-8 43,-13 71,-13 45,0 80,10 103,30 23,20 35,47 36,81l-74 3c-3,-19 -10,-32 -20,-40 -10,-8 -26,-12 -46,-12 -21,0 -38,4 -50,13 -8,6 -12,13 -12,23 0,9 4,16 11,22 9,8 32,16 67,24 36,8 62,17 79,26 17,9 30,21 40,37 10,16 14,35 14,58 0,21 -6,40 -17,59 -12,18 -28,32 -49,41 -21,9 -48,13 -79,13 -46,0 -81,-11 -106,-32 -25,-21 -39,-52 -44,-93zm355 118l0 0 0 -363 74 0 0 363 -74 0zm225 0l0 0 0 -302 -108 0 0 -61 288 0 0 61 -107 0 0 302 -74 0zm518 0l0 0 -146 -363 -78 0 -141 363 78 0 30 -83 146 0 31 83 79 0zm-134 -144l0 0 -100 0 49 -134 50 134zm154 26l0 0 72 -7c4,24 13,41 26,53 13,11 31,17 53,17 24,0 41,-5 53,-15 12,-10 18,-22 18,-35 0,-9 -3,-16 -8,-22 -5,-6 -14,-11 -26,-16 -9,-3 -28,-8 -58,-16 -39,-10 -67,-22 -82,-36 -22,-20 -33,-44 -33,-73 0,-19 5,-36 16,-52 10,-16 26,-28 45,-37 20,-8 43,-13 71,-13 45,0 80,10 103,30 23,20 35,47 36,81l-74 3c-3,-19 -10,-32 -20,-40 -10,-8 -26,-12 -46,-12 -21,0 -38,4 -50,13 -8,6 -12,13 -12,23 0,9 4,16 11,22 9,8 32,16 67,24 36,8 62,17 79,26 17,9 30,21 40,37 10,16 14,35 14,58 0,21 -6,40 -17,59 -12,18 -28,32 -49,41 -21,9 -48,13 -79,13 -46,0 -81,-11 -106,-32 -25,-21 -39,-52 -44,-93zm496 118l0 0 0 -363 74 0 0 363 -74 0zm124 -118l0 0 72 -7c4,24 13,41 26,53 13,11 31,17 53,17 24,0 41,-5 53,-15 12,-10 18,-22 18,-35 0,-9 -3,-16 -8,-22 -5,-6 -14,-11 -26,-16 -9,-3 -28,-8 -58,-16 -39,-10 -67,-22 -82,-36 -22,-20 -33,-44 -33,-73 0,-19 5,-36 16,-52 10,-16 26,-28 45,-37 20,-8 43,-13 71,-13 45,0 80,10 103,30 23,20 35,47 36,81l-74 3c-3,-19 -10,-32 -20,-40 -10,-8 -26,-12 -46,-12 -21,0 -38,4 -50,13 -8,6 -12,13 -12,23 0,9 4,16 11,22 9,8 32,16 67,24 36,8 62,17 79,26 17,9 30,21 40,37 10,16 14,35 14,58 0,21 -6,40 -17,59 -12,18 -28,32 -49,41 -21,9 -48,13 -79,13 -46,0 -81,-11 -106,-32 -25,-21 -39,-52 -44,-93zm360 118l0 0 0 -360 74 0 0 299 182 0 0 61 -256 0zm635 0l0 0 -79 0 -31 -83 -146 0 -30 83 -78 0 141 -363 78 0 146 363zm-134 -144l0 0 -50 -134 -49 134 100 0zm173 144l0 0 0 -363 110 0 65 248 64 -248 110 0 0 363 -68 0 0 -286 -72 286 -71 0 -71 -286 0 286 -68 0zm565 0l0 0 0 -363 71 0 150 243 0 -243 68 0 0 363 -73 0 -147 -239 0 239 -68 0zm366 0l0 0 0 -363 269 0 0 61 -195 0 0 81 182 0 0 61 -182 0 0 98 202 0 0 61 -276 0zm507 -133l0 0 0 -61 158 0 0 145c-15,15 -38,28 -67,40 -29,11 -59,17 -89,17 -38,0 -71,-8 -99,-24 -28,-16 -49,-39 -64,-69 -14,-30 -21,-62 -21,-97 0,-38 8,-72 24,-101 16,-29 39,-52 70,-68 23,-12 52,-18 87,-18 45,0 80,9 106,28 25,19 42,45 49,79l-73 14c-5,-18 -15,-32 -29,-42 -14,-10 -32,-15 -53,-15 -32,0 -57,10 -76,31 -19,20 -28,51 -28,91 0,43 10,76 29,97 19,22 44,32 75,32 15,0 31,-3 46,-9 15,-6 29,-13 40,-22l0 -46 -84 0zm226 133l0 0 0 -363 269 0 0 61 -195 0 0 81 182 0 0 61 -182 0 0 98 202 0 0 61 -276 0zm338 0l0 0 0 -363 154 0c39,0 67,3 85,10 18,7 32,18 42,35 11,17 16,36 16,57 0,27 -8,50 -24,68 -16,18 -40,29 -72,34 16,9 29,19 39,30 10,11 24,31 42,59l44 71 -88 0 -53 -79c-19,-28 -32,-46 -39,-53 -7,-7 -14,-12 -22,-15 -8,-3 -20,-4 -37,-4l-15 0 0 152 -74 0zm74 -210l0 0 54 0c35,0 57,-2 66,-4 9,-3 16,-8 21,-15 5,-7 7,-16 7,-27 0,-12 -3,-22 -10,-30 -7,-8 -16,-12 -28,-14 -6,-1 -24,-1 -54,-1l-57 0 0 92zm290 210l0 0 0 -363 74 0 0 363 -74 0z"/>
  <path class="fil3" d="M1446 12990l0 -528 208 0 123 360 122 -360 209 0 0 528 -128 0 0 -415 -135 415 -133 0 -135 -415 0 415 -128 0zm1648 0l0 0 -150 0 -59 -120 -275 0 -57 120 -147 0 266 -528 147 0 275 528zm-254 -209l0 0 -95 -195 -93 195 188 0zm560 209l0 0 0 -528 139 0 0 234 280 -234 186 0 -259 205 272 322 -179 0 -189 -248 -112 88 0 160 -139 0zm1538 0l0 0 -150 0 -59 -120 -275 0 -57 120 -147 0 266 -528 147 0 275 528zm-254 -209l0 0 -95 -195 -93 195 188 0zm522 38l0 0 135 -10c8,35 24,60 49,77 25,16 58,24 100,24 44,0 78,-7 100,-22 23,-14 34,-31 34,-51 0,-13 -5,-23 -14,-32 -9,-9 -26,-16 -50,-23 -16,-4 -53,-12 -110,-23 -74,-14 -126,-32 -156,-52 -42,-29 -63,-65 -63,-106 0,-27 10,-52 30,-76 20,-23 48,-41 85,-54 37,-12 82,-18 135,-18 86,0 150,15 194,44 43,29 66,68 68,117l-139 4c-6,-27 -19,-47 -38,-59 -19,-12 -48,-18 -87,-18 -40,0 -71,6 -94,19 -15,8 -22,19 -22,33 0,13 7,23 21,32 17,11 60,23 127,36 67,12 117,25 149,38 32,13 57,31 76,54 18,23 27,51 27,84 0,30 -11,59 -33,85 -22,26 -53,46 -93,59 -40,13 -90,19 -149,19 -87,0 -153,-15 -200,-46 -46,-31 -74,-76 -83,-134zm905 0l0 0 135 -10c8,35 24,60 49,77 25,16 58,24 100,24 44,0 78,-7 100,-22 23,-14 34,-31 34,-51 0,-13 -5,-23 -14,-32 -9,-9 -26,-16 -50,-23 -16,-4 -53,-12 -110,-23 -74,-14 -126,-32 -156,-52 -42,-29 -63,-65 -63,-106 0,-27 10,-52 30,-76 20,-23 48,-41 85,-54 37,-12 82,-18 135,-18 86,0 150,15 194,44 43,29 66,68 68,117l-139 4c-6,-27 -19,-47 -38,-59 -19,-12 -48,-18 -87,-18 -40,0 -71,6 -94,19 -15,8 -22,19 -22,33 0,13 7,23 21,32 17,11 60,23 127,36 67,12 117,25 149,38 32,13 57,31 76,54 18,23 27,51 27,84 0,30 -11,59 -33,85 -22,26 -53,46 -93,59 -40,13 -90,19 -149,19 -87,0 -153,-15 -200,-46 -46,-31 -74,-76 -83,-134zm1524 171l0 0 -150 0 -59 -120 -275 0 -57 120 -147 0 266 -528 147 0 275 528zm-254 -209l0 0 -95 -195 -93 195 188 0zm558 209l0 0 0 -528 292 0c73,0 127,5 160,14 33,9 60,26 80,50 20,24 30,52 30,83 0,40 -15,72 -45,98 -30,26 -75,42 -135,49 30,13 54,28 74,44 19,16 46,45 79,86l84 103 -166 0 -99 -115c-36,-41 -60,-67 -73,-77 -13,-11 -27,-18 -42,-22 -15,-4 -38,-6 -70,-6l-28 0 0 220 -139 0zm139 -304l0 0 103 0c66,0 108,-2 124,-7 16,-4 30,-12 39,-22 9,-11 14,-24 14,-40 0,-18 -6,-32 -19,-43 -12,-11 -30,-18 -52,-21 -11,-1 -45,-2 -101,-2l-108 0 0 134z"/>
  <path class="fil3" d="M7191 4919c551,-1646 -649,-2883 -2254,-3630 -1606,747 -2805,1984 -2254,3630 -1296,-1857 -796,-3085 2252,-4915l0 -3 3 2 3 -2 0 3c3048,1831 3548,3059 2252,4915zm-373 294l0 0c168,-345 271,-656 304,-929l0 0 0 0c47,-1125 -753,-2034 -2170,-2786l0 -5 0 0 0 0 -5 3 -5 -3 0 5c-1077,578 -2226,1443 -2170,2786l0 0c34,278 138,599 311,951l0 0c1480,372 2534,1151 2752,2726l-912 392 -822 -392c-2,-539 183,-1078 692,-1617 -176,-200 -404,-372 -713,-500 -727,773 -929,1648 -922,2650l-4 -1c699,181 1286,507 1769,968 557,-463 1156,-789 1798,-974 8,-1307 -357,-2240 -1478,-3145 -603,-487 -1350,-836 -2254,-1015l-1 -3 0 0c217,-1000 1098,-1640 1958,-2073 1126,562 1780,1253 1958,2073l1 0c-613,127 -1199,345 -1752,670 309,186 530,383 682,588 295,-145 618,-272 982,-369zm-5731 3140l0 0c689,-58 1308,-26 1861,92l-4 -1c-2,-277 12,-561 49,-855 -364,-75 -724,-127 -1077,-128l-27 0 0 -2436c242,28 477,62 704,104l0 0c-224,-283 -419,-590 -577,-924 -296,-18 -605,-21 -929,-8l0 4156zm6871 -897l0 0c10,2 -780,75 -1071,135 37,289 51,568 49,840 574,-136 1182,-163 1824,-78l0 0 0 -4156c-290,-15 -576,-15 -857,0l-29 7c-153,324 -341,623 -557,899 201,-35 414,-62 641,-79l0 2431z"/>
  <path class="fil3" d="M0 12018l625 -1370 113 0c150,383 239,596 341,838 144,340 168,390 321,464 4,23 8,46 12,69 -282,55 -480,-44 -564,-353l-530 -1 -161 353 -158 0zm9869 -1370l134 0 0 1370 -137 0 -811 -952 0 952 -143 0 0 -1145c3,-64 -32,-104 -103,-123l-92 3 0 -106 263 0c95,25 168,65 218,119l671 791 0 -911zm-1610 1196l0 -1196 307 0 0 1196c8,56 41,88 101,92l59 -6 0 88 -366 0c-59,-25 -93,-83 -101,-175zm-880 -1196l-748 0 0 105 78 6c66,20 90,69 87,136l0 1124 517 0c443,2 692,-202 748,-587 10,-67 7,-135 0,-202 -34,-303 -255,-503 -682,-582zm264 367l0 0c111,232 101,455 0,672 -134,199 -315,270 -547,204l0 -1103c257,-54 442,17 547,227zm-1743 -367l-748 0 0 105 78 6c66,20 90,69 87,136l0 1124 517 0c443,2 692,-202 748,-587 10,-67 7,-135 0,-202 -34,-303 -255,-503 -682,-582zm264 367l0 0c111,232 101,455 0,672 -134,199 -315,270 -547,204l0 -1103c257,-54 442,17 547,227zm-2086 -367l-327 0 0 107c115,0 150,27 146,115l0 657c36,260 145,431 341,492 162,32 325,36 487,0 186,-82 288,-246 298,-504l0 -867 -143 0 0 907c-16,248 -138,370 -361,373 -187,-1 -294,-111 -313,-341l-3 -760c-10,-78 -48,-139 -126,-179zm-2734 110l-3 -110 332 0c91,40 132,107 138,193l0 1052 622 0 -49 125 -874 0 0 -1137c-2,-66 -25,-111 -80,-123l-86 0zm1136 1261l625 -1370 113 0c150,383 239,596 341,838 144,340 168,390 321,464 4,23 8,46 12,69 -282,55 -480,-44 -564,-353l-530 -1 -161 353 -158 0zm783 -480l0 0 -200 -465 -200 462 400 3zm-2479 0l0 0 -200 -465 -200 462 400 3z"/>
 </g>
</svg>
