<svg height="511pt" viewBox="0 -11 511.9997 511" width="511pt" xmlns="http://www.w3.org/2000/svg"><path d="m507.699219 162.71875c8.878906-34.875 2.351562-64.488281-4.6875-83.1875-3.550781-9.4375-11.546875-16.339844-21.386719-18.464844-9.8125-2.117187-19.910156.855469-27.011719 7.957032l-38.105469 38.109374c-9.886718 9.886719-20.109374-3.105468-20.109374-3.105468l46.609374-46.609375c7.101563-7.101563 10.078126-17.199219 7.957032-27.011719-2.125-9.839844-9.023438-17.832031-18.460938-21.386719-17.445312-6.566406-45.988281-12.71875-82.921875-4.75-23.476562 5.0625-41.011719 17.550781-52.148437 27.914063-24.898438-2.613282-50.726563 5.558594-69.800782 24.542968-3.375 3.042969-41.863281 38.878907-43.414062 90.4375-.585938 19.386719 4.140625 38.324219 14.074219 56.640626l-180.15625 180.15625c-24.183594 24.183593-24.183594 63.535156 0 87.71875 24.183593 24.183593 63.535156 24.183593 87.71875 0l181.9375-181.9375c11.132812 4.878906 22.976562 8.203124 35.324219 9.84375 4.109374.546874 7.878906-2.34375 8.425781-6.449219.542969-4.105469-2.34375-7.875-6.449219-8.421875-25.40625-3.371094-48.4375-14.757813-66.609375-32.933594l-20.394531-20.390625c-26.625-26.628906-39.707032-54.769531-38.878906-83.640625 1.324218-46.242188 38.1875-79.632812 38.554687-79.957031.109375-.097657.21875-.203125.328125-.308594 27.71875-27.71875 72.828125-27.71875 100.546875 0l50.257813 50.257813c10.535156 10.535156 27.679687 10.535156 38.21875 0l38.109374-38.109376c3.53125-3.535156 8.355469-4.957031 13.234376-3.902343 4.90625 1.0625 8.738281 4.367187 10.515624 9.085937 6.28125 16.683594 12.105469 43.105469 4.1875 74.203125-4.910156 19.296875-15.300781 37.292969-30.042968 52.035157l-40.730469 40.726562c-18.546875 18.546875-42.078125 29.996094-68.054687 33.117188-4.113282.492187-7.046876 4.226562-6.554688 8.339843.496094 4.113281 4.230469 7.046875 8.34375 6.554688 29.34375-3.523438 55.929688-16.457031 76.875-37.402344l40.730469-40.730469c16.644531-16.648437 28.390625-37.03125 33.96875-58.941406zm-257.976563 101.449219-175.691406 175.6875c-6.636719 6.636719-17.433594 6.636719-24.070312 0-6.636719-6.636719-6.636719-17.433594 0-24.070313l101.289062-101.289062c2.929688-2.929688 2.929688-7.679688 0-10.609375-2.929688-2.929688-7.679688-2.929688-10.609375 0l-101.289063 101.289062c-12.484374 12.488281-12.484374 32.804688 0 45.289063 12.488282 12.484375 32.804688 12.488281 45.289063 0l176.488281-176.484375c4.0625 3.109375 8.28125 5.972656 12.648438 8.5625l-178.527344 178.527343c-18.335938 18.335938-48.171875 18.335938-66.503906 0-18.335938-18.332031-18.335938-48.167968 0-66.5l177.628906-177.632812c2.796875 4.046875 5.859375 8.058594 9.179688 12.035156l-53.140626 53.144532c-2.929687 2.925781-2.929687 7.675781 0 10.605468 2.929688 2.929688 7.679688 2.929688 10.609376 0l52.609374-52.609375c.613282.628907 23.472657 23.460938 24.089844 24.054688zm66.199219-227.953125c9.316406-7.074219 21.660156-14.011719 36.824219-17.28125 33.363281-7.199219 58.914062-1.730469 74.472656 4.128906 4.710938 1.769531 8.023438 5.605469 9.082031 10.511719 1.054688 4.878906-.367187 9.703125-3.902343 13.238281l-46.609376 46.605469-36.542968-36.542969c-9.691406-9.6875-21.136719-16.5625-33.324219-20.660156zm0 0"/><path d="m314.820312 120.113281c-16.261718-16.261719-42.726562-16.261719-58.988281 0-16.265625 16.265625-16.265625 42.726563 0 58.992188l54.878907 54.882812c16.265624 16.261719 42.726562 16.261719 58.992187 0 16.265625-16.265625 16.265625-42.726562 0-58.992187zm-5.300781 15.914063 8.417969 8.417968-37.773438 37.777344-8.421874-8.421875zm19.023438 19.027344 6.21875 6.21875-37.773438 37.773437-6.21875-6.21875zm16.828125 16.828124 8.421875 8.417969-37.777344 37.777344-8.417969-8.421875zm-78.933594-41.160156c8.574219-8.574218 21.570312-10.082031 31.707031-4.539062l-36.246093 36.246094c-5.542969-10.136719-4.035157-23.132813 4.539062-31.707032zm92.65625 92.65625c-8.570312 8.574219-21.566406 10.082032-31.707031 4.542969l36.25-36.25c5.539062 10.140625 4.03125 23.136719-4.542969 31.707031zm0 0"/></svg>